<svg data-testid="geist-icon" fill="none" height="36" viewBox="0 0 36 36" width="36" xmlns="http://www.w3.org/2000/svg"><path d="M32.5 19V18V8.5C32.5 5.73858 30.2614 3.5 27.5 3.5H8.5C5.73858 3.5 3.5 5.73858 3.5 8.5V27.5C3.5 30.2614 5.73858 32.5 8.5 32.5H20.5" fill="#fff0dd" stroke="#eb904d" stroke-linecap="round" stroke-width="1.25"></path><path d="M20.7235 25.9626V21.3405C20.7235 20.1386 23.346 19.1409 26.7877 18.9485C25.896 14.5128 22.3002 10 18 10C13.0294 10 9 16.0294 9 21C9 25.9706 13.0294 26 18 26C18.9493 26 19.8643 25.9989 20.7235 25.9626Z" fill="#eb904d" fill-opacity="0.15" stroke="#eb904d" stroke-width="1.25"></path><path d="M28.0265 18.9C24.0078 18.9 20.75 19.9859 20.75 21.3255V26.985V32.6445C20.75 33.9866 23.984 35.07 28.0265 35.07C32.069 35.07 35.303 33.9866 35.303 32.6445V26.985V21.3255C35.303 19.9859 32.0452 18.9 28.0265 18.9Z" fill="#fff"></path><path d="M35.303 21.3255C35.303 22.6651 32.0452 23.751 28.0265 23.751C24.0078 23.751 20.75 22.6651 20.75 21.3255M35.303 21.3255C35.303 19.9859 32.0452 18.9 28.0265 18.9C24.0078 18.9 20.75 19.9859 20.75 21.3255M35.303 21.3255V32.6445M35.303 21.3255V26.985M20.75 21.3255V32.6445M20.75 21.3255V26.985M35.303 26.985C35.303 28.3271 32.069 29.4105 28.0265 29.4105C23.984 29.4105 20.75 28.3271 20.75 26.985M35.303 26.985V32.6445M20.75 26.985V32.6445M20.75 32.6445C20.75 33.9866 23.984 35.07 28.0265 35.07C32.069 35.07 35.303 33.9866 35.303 32.6445" stroke="#d45900" stroke-linecap="round" stroke-linejoin="round" stroke-width="1.25"></path></svg>
