<svg width="486" height="72" viewBox="0 0 486 72" fill="none" xmlns="http://www.w3.org/2000/svg">
<path d="M140.111 25.5437V17.1059H99.4475V25.5437H114.798V53.6018H124.761V25.5437H140.111Z" fill="black"/>
<path d="M163.087 54.1609C175.591 54.1609 182.453 47.8072 182.453 37.3362V17.1059H172.491V36.3705C172.491 42.2159 169.441 45.5199 163.087 45.5199C156.733 45.5199 153.683 42.2159 153.683 36.3705V17.1059H143.721V37.3362C143.721 47.8072 150.583 54.1609 163.087 54.1609Z" fill="black"/>
<path d="M197.704 41.5043H207.616L215.443 53.6018H226.88L218.036 40.4369C223.017 38.6578 226.067 34.6931 226.067 29.3051C226.067 21.4773 220.221 17.1059 211.326 17.1059H187.741V53.6018H197.704V41.5043ZM197.704 33.6257V25.442H210.818C214.325 25.442 216.257 26.9669 216.257 29.5593C216.257 31.9991 214.325 33.6257 210.818 33.6257H197.704Z" fill="black"/>
<path d="M230.702 53.6018H256.778C264.911 53.6018 269.587 49.7387 269.587 43.2833C269.587 38.9628 266.842 36.0147 263.589 34.6931C265.826 33.6257 268.571 31.0842 268.571 27.0686C268.571 20.6132 263.996 17.1059 255.914 17.1059H230.702V53.6018ZM240.258 31.3891V25.1879H254.897C257.642 25.1879 259.167 26.2553 259.167 28.2885C259.167 30.3217 257.642 31.3891 254.897 31.3891H240.258ZM240.258 38.8611H255.812C258.506 38.8611 259.98 40.1827 259.98 42.1651C259.98 44.1475 258.506 45.469 255.812 45.469H240.258V38.8611Z" fill="black"/>
<path d="M293.946 16.496C281.188 16.496 271.987 24.4763 271.987 35.3539C271.987 46.2315 281.188 54.2118 293.946 54.2118C306.704 54.2118 315.854 46.2315 315.854 35.3539C315.854 24.4763 306.704 16.496 293.946 16.496ZM293.946 25.1371C300.655 25.1371 305.688 29.1018 305.688 35.3539C305.688 41.606 300.655 45.5707 293.946 45.5707C287.236 45.5707 282.204 41.606 282.204 35.3539C282.204 29.1018 287.236 25.1371 293.946 25.1371Z" fill="black"/>
<path d="M330.211 41.9618H343.478C352.373 41.9618 358.218 37.692 358.218 29.5593C358.218 21.3756 352.373 17.1059 343.478 17.1059H320.248V53.6018H330.211V41.9618ZM330.211 33.6765V25.442H342.918C346.477 25.442 348.408 26.9669 348.408 29.5593C348.408 32.1008 346.477 33.6765 342.918 33.6765H330.211Z" fill="black"/>
<path d="M371.553 17.1059L353.61 53.6018H364.182L367.486 46.7398H386.649L389.953 53.6018H400.882L382.989 17.1059H371.553ZM377.144 26.8653L382.837 38.7595H371.4L377.144 26.8653Z" fill="black"/>
<path d="M398.786 35.3539C398.786 46.2315 407.885 54.2118 420.592 54.2118C430.758 54.2118 437.823 49.6371 440.619 42.2667L431.521 38.2004C430.097 42.4701 426.387 45.5707 420.592 45.5707C414.086 45.5707 408.952 41.606 408.952 35.3539C408.952 29.1018 414.086 25.1371 420.592 25.1371C426.387 25.1371 430.097 28.2377 431.521 32.5074L440.619 28.441C437.823 21.0707 430.758 16.496 420.592 16.496C407.885 16.496 398.786 24.4763 398.786 35.3539Z" fill="black"/>
<path d="M454.18 17.1059H444.218V53.6018H454.18V44.5033L460.687 38.6578L473.343 53.6018H486L467.854 32.2532L484.729 17.1059H471.158L454.18 32.5074V17.1059Z" fill="black"/>
<path fill-rule="evenodd" clip-rule="evenodd" d="M27.7229 26.298C26.9125 26.298 26.2556 26.9549 26.2556 27.7653V44.0853C26.2556 44.8956 26.9125 45.5526 27.7229 45.5526H44.0429C44.8532 45.5526 45.5102 44.8956 45.5102 44.0853V27.7653C45.5102 26.9549 44.8532 26.298 44.0429 26.298H27.7229ZM15.9508 14.6491C15.2085 14.6491 14.6067 15.2509 14.6067 15.9932V55.8574C14.6067 56.5997 15.2085 57.2014 15.9508 57.2014H55.815C56.5573 57.2014 57.159 56.5997 57.159 55.8574V15.9932C57.159 15.2509 56.5573 14.6491 55.815 14.6491H15.9508Z" fill="black"/>
<path d="M0 36.5923V62.5118C0 64.2508 0.485256 65.8766 1.32775 67.2609L10.6727 57.9159V36.5923H0Z" fill="url(#paint0_linear_2758_13913)"/>
<path d="M4.26121 70.2466L13.5269 60.981C13.5914 60.985 13.6565 60.9871 13.7221 60.9871H34.1389V71.6599H9.14807C7.351 71.6599 5.67496 71.1417 4.26121 70.2466Z" fill="url(#paint1_linear_2758_13913)"/>
<path d="M38.3244 71.6599H62.5118C67.5641 71.6599 71.6599 67.5641 71.6599 62.5118V9.14807C71.6599 4.09573 67.5641 0 62.5118 0H36.5923V10.6727H57.9378C59.6219 10.6727 60.9871 12.038 60.9871 13.7221V57.9378C60.9871 59.6219 59.6219 60.9871 57.9378 60.9871H38.3244V71.6599Z" fill="url(#paint2_linear_2758_13913)"/>
<defs>
<linearGradient id="paint0_linear_2758_13913" x1="39.3532" y1="5.03858" x2="4.08416" y2="40.0685" gradientUnits="userSpaceOnUse">
<stop stop-color="#0096FF"/>
<stop offset="1" stop-color="#FF1E56"/>
</linearGradient>
<linearGradient id="paint1_linear_2758_13913" x1="39.3532" y1="5.03858" x2="4.08416" y2="40.0685" gradientUnits="userSpaceOnUse">
<stop stop-color="#0096FF"/>
<stop offset="1" stop-color="#FF1E56"/>
</linearGradient>
<linearGradient id="paint2_linear_2758_13913" x1="39.3532" y1="5.03858" x2="4.08416" y2="40.0685" gradientUnits="userSpaceOnUse">
<stop stop-color="#0096FF"/>
<stop offset="1" stop-color="#FF1E56"/>
</linearGradient>
</defs>
</svg>
