<svg width="100" height="100" viewBox="0 0 100 100" fill="none" xmlns="http://www.w3.org/2000/svg">
<path d="M49.9609 17.4822C32.0448 17.4822 17.4687 32.0698 17.4687 50.0001C17.4687 67.9303 32.0448 82.5179 49.9609 82.5179C67.8771 82.5179 82.4532 67.9303 82.4532 50.0001C82.4532 32.0698 67.8771 17.4822 49.9609 17.4822ZM49.9609 66.8282C40.6731 66.8282 33.146 59.2952 33.146 50.0001C33.146 40.7049 40.6731 33.1719 49.9609 33.1719C59.2488 33.1719 66.7758 40.7049 66.7758 50.0001C66.7758 59.2952 59.2488 66.8282 49.9609 66.8282Z" fill="black"/>
<path fill-rule="evenodd" clip-rule="evenodd" d="M52.6834 12.1412V0C79.0524 1.41092 100 23.2591 100 50C100 76.7409 79.0524 98.583 52.6834 100V87.8588C72.3361 86.4539 87.8985 70.0194 87.8985 50C87.8985 29.9806 72.3361 13.5461 52.6834 12.1412ZM21.3045 74.8273C16.0949 68.8082 12.7367 61.142 12.1377 52.7249H0C0.629273 64.5027 5.33672 75.1906 12.7125 83.42L21.2985 74.8273H21.3045ZM47.2379 100V87.8588C38.8214 87.2593 31.1612 83.9046 25.1468 78.6847L16.5609 87.2775C24.7898 94.6651 35.4693 99.3702 47.2319 100H47.2379Z" fill="url(#paint0_linear_2758_13753)"/>
<defs>
<linearGradient id="paint0_linear_2758_13753" x1="54.6442" y1="7.03111" x2="5.42549" y2="56.2111" gradientUnits="userSpaceOnUse">
<stop stop-color="#0096FF"/>
<stop offset="1" stop-color="#FF1E56"/>
</linearGradient>
</defs>
</svg>
