<svg width="56.46" height="36" viewBox="0 0 56.46 36" fill="none" xmlns="http://www.w3.org/2000/svg"><path d="m53.228 0.254 0.173 0.939a2.483 2.483 0 0 0 1.993 1.993l0.939 0.173 -0.939 0.173a2.483 2.483 0 0 0 -1.993 1.993l-0.173 0.939 -0.173 -0.939a2.484 2.484 0 0 0 -1.993 -1.993l-0.939 -0.173 0.939 -0.173a2.484 2.484 0 0 0 1.993 -1.993l0.173 -0.939Zm-1.863 27.007 0.089 0.545a1.49 1.49 0 0 0 1.228 1.228l0.545 0.089 -0.545 0.09a1.49 1.49 0 0 0 -1.228 1.228l-0.089 0.545 -0.089 -0.545a1.49 1.49 0 0 0 -1.228 -1.228l-0.545 -0.09 0.545 -0.089a1.49 1.49 0 0 0 1.228 -1.228l0.089 -0.545Zm-29.492 -0.311 0.178 1.077a1.49 1.49 0 0 0 1.228 1.228l1.077 0.178 -1.078 0.178a1.49 1.49 0 0 0 -1.228 1.228l-0.178 1.078 -0.178 -1.078a1.49 1.49 0 0 0 -1.228 -1.228l-1.078 -0.178 1.078 -0.178a1.49 1.49 0 0 0 1.228 -1.228l0.178 -1.077ZM37.706 6.152l0.111 0.674a0.931 0.931 0 0 0 0.768 0.768l0.673 0.111 -0.673 0.111a0.931 0.931 0 0 0 -0.768 0.768l-0.111 0.673 -0.111 -0.673a0.932 0.932 0 0 0 -0.768 -0.768l-0.673 -0.111 0.673 -0.111a0.932 0.932 0 0 0 0.768 -0.768l0.111 -0.674Zm2.328 21.11 0.28 1.7a1.553 1.553 0 0 0 1.279 1.279l1.7 0.28 -1.7 0.28a1.553 1.553 0 0 0 -1.279 1.279l-0.28 1.7 -0.28 -1.7a1.553 1.553 0 0 0 -1.279 -1.279l-1.7 -0.28 1.7 -0.28a1.553 1.553 0 0 0 1.279 -1.279l0.28 -1.7ZM15.355 2.116l0.243 1.473a0.932 0.932 0 0 0 0.768 0.768l1.473 0.243 -1.473 0.243a0.932 0.932 0 0 0 -0.768 0.768l-0.243 1.473 -0.243 -1.473a0.932 0.932 0 0 0 -0.768 -0.768l-1.473 -0.243 1.473 -0.243a0.932 0.932 0 0 0 0.768 -0.768l0.243 -1.473Zm2.484 13.97 0.111 0.673a0.932 0.932 0 0 0 0.768 0.768l0.673 0.111 -0.673 0.111a0.932 0.932 0 0 0 -0.768 0.768l-0.111 0.673 -0.111 -0.673a0.932 0.932 0 0 0 -0.768 -0.768l-0.673 -0.111 0.673 -0.111a0.932 0.932 0 0 0 0.768 -0.768l0.111 -0.674Zm20.954 -1.242 0.099 0.603a0.466 0.466 0 0 0 0.384 0.383l0.603 0.099 -0.603 0.099a0.466 0.466 0 0 0 -0.384 0.384l-0.099 0.603 -0.099 -0.603a0.465 0.465 0 0 0 -0.384 -0.384l-0.603 -0.099 0.603 -0.099a0.465 0.465 0 0 0 0.384 -0.384l0.099 -0.603Zm-1.863 10.245 0.133 0.807a0.931 0.931 0 0 0 0.768 0.768l0.807 0.133 -0.807 0.133a0.931 0.931 0 0 0 -0.768 0.768l-0.133 0.807 -0.133 -0.807a0.931 0.931 0 0 0 -0.768 -0.768l-0.807 -0.133 0.807 -0.133a0.932 0.932 0 0 0 0.768 -0.768l0.133 -0.807ZM8.06 14.844l0.089 0.54a0.932 0.932 0 0 0 0.768 0.768l0.54 0.089 -0.54 0.089a0.932 0.932 0 0 0 -0.768 0.768l-0.089 0.54 -0.089 -0.54a0.932 0.932 0 0 0 -0.768 -0.768l-0.54 -0.089 0.54 -0.089a0.932 0.932 0 0 0 0.768 -0.768l0.089 -0.54Zm0 11.797 0.308 1.873a0.932 0.932 0 0 0 0.768 0.768l1.873 0.308 -1.873 0.308a0.932 0.932 0 0 0 -0.768 0.768l-0.308 1.873 -0.309 -1.873a0.932 0.932 0 0 0 -0.768 -0.768l-1.873 -0.308 1.873 -0.308a0.932 0.932 0 0 0 0.768 -0.768l0.308 -1.873ZM2.627 4.6l0.243 1.473a0.932 0.932 0 0 0 0.768 0.768l1.473 0.243 -1.473 0.243a0.932 0.932 0 0 0 -0.768 0.768l-0.243 1.473 -0.243 -1.473a0.932 0.932 0 0 0 -0.768 -0.768l-1.473 -0.243 1.473 -0.243a0.932 0.932 0 0 0 0.768 -0.768l0.243 -1.473Zm26.387 28.249 0.039 0.234a1.552 1.552 0 0 0 1.279 1.279l0.235 0.039 -0.235 0.039a1.551 1.551 0 0 0 -1.279 1.279l-0.039 0.235 -0.039 -0.235a1.552 1.552 0 0 0 -1.279 -1.279l-0.234 -0.039 0.234 -0.039a1.553 1.553 0 0 0 1.279 -1.279l0.039 -0.234Z" fill="#D9D9D9"/></svg>
