<svg width="96" height="33.717" viewBox="0 0 96 33.717" fill="none" xmlns="http://www.w3.org/2000/svg"><path fill-rule="evenodd" clip-rule="evenodd" d="M88.954 25.823c6.676 -0.497 11.938 -6.071 11.938 -12.874 0 -7.13 -5.78 -12.91 -12.91 -12.91 -6.929 0 -12.583 5.459 -12.897 12.311 -2.031 0.653 -3.803 1.884 -5.124 3.498a10.908 10.908 0 0 0 -4.432 -0.934c-4.716 0 -8.736 2.983 -10.275 7.164a4.074 4.074 0 0 0 -1.092 -0.148c-1.457 0 -2.736 0.766 -3.455 1.918 -2.21 -3.512 -6.122 -5.847 -10.578 -5.847 -4.952 0 -9.231 2.882 -11.251 7.061 -1.62 -1.59 -3.84 -2.57 -6.29 -2.57 -3.795 0 -7.04 2.354 -8.356 5.681 -1.486 -1.596 -3.605 -2.594 -5.958 -2.594 -4.495 0 -8.139 3.644 -8.139 8.139s3.644 8.139 8.139 8.139c3.26 0 6.073 -1.917 7.372 -4.685 1.647 2.004 4.145 3.282 6.942 3.282 2.811 0 5.321 -1.292 6.967 -3.314 2.211 3.509 6.12 5.84 10.574 5.84 6.898 0 12.489 -5.592 12.489 -12.489 0 -0.246 -0.007 -0.49 -0.021 -0.733a4.06 4.06 0 0 0 1.565 0.312c0.413 0 0.812 -0.062 1.188 -0.176 1.606 4.049 5.558 6.912 10.178 6.912 3.418 0 6.471 -1.567 8.478 -4.022A10.91 10.91 0 0 0 78.439 33.717c4.986 0 9.194 -3.334 10.515 -7.894Z" fill="#B5D0F0"/><path fill-rule="evenodd" clip-rule="evenodd" d="M91.249 26.343c5.431 -0.644 9.643 -5.265 9.643 -10.869 0 -6.045 -4.901 -10.946 -10.946 -10.946s-10.946 4.901 -10.946 10.946c0 0.619 0.052 1.227 0.15 1.818 -2.903 0.47 -5.41 2.143 -7.007 4.5a9.639 9.639 0 0 0 -4.79 -1.266c-3.984 0 -7.406 2.407 -8.892 5.845a9.152 9.152 0 0 0 -2.053 -0.232 9.079 9.079 0 0 0 -5.304 1.7c-1.596 -1.572 -3.786 -2.542 -6.203 -2.542 -3.3 0 -6.177 1.808 -7.696 4.487a6.145 6.145 0 0 0 -3.109 -0.839c-1.92 0 -3.634 0.876 -4.767 2.25 -1.461 -1.394 -3.439 -2.25 -5.618 -2.25 -2.827 0 -5.318 1.442 -6.777 3.63 -1.492 -1.709 -3.686 -2.788 -6.133 -2.788 -4.495 0 -8.139 3.644 -8.139 8.139 0 4.495 3.644 8.139 8.139 8.139 2.828 0 5.318 -1.442 6.777 -3.63 1.492 1.709 3.686 2.788 6.133 2.788 3.269 0 6.088 -1.927 7.382 -4.707a6.146 6.146 0 0 0 3.002 0.778 6.151 6.151 0 0 0 4.021 -1.488c1.622 1.939 4.059 3.172 6.785 3.172a8.799 8.799 0 0 0 4.87 -1.461c1.663 1.764 4.022 2.864 6.637 2.864 3.521 0 6.576 -1.995 8.096 -4.916a9.686 9.686 0 0 0 2.849 0.426c2.944 0 5.581 -1.314 7.357 -3.387 1.724 1.249 3.835 1.984 6.115 1.984 5.813 0 10.525 -4.775 10.525 -10.665 0 -0.502 -0.034 -0.996 -0.1 -1.48Z" fill="#FEFEFE"/></svg>
